{"title":"[MARATHI] Ekulti Ek 2013 1/3 DVDRip XviD AC3 Esubs (DDR)","uid":8822081,"size":1551923200,"categoryP":"video","categoryS":"movies","magnet":"?xt=urn:btih:00813ec30812cbd79d9c54e74f795cedbc60b8c4&amp;dn=%5BMARATHI%5D+Ekulti+Ek+2013+1%2F3+DVDRip+XviD+AC3+Esubs+%28DDR%29&amp;tr=udp%3A%2F%2Ftracker.openbittorrent.com%3A80&amp;tr=udp%3A%2F%2Fopen.demonii.com%3A1337&amp;tr=udp%3A%2F%2Ftracker.coppersurfer.tk%3A6969&amp;tr=udp%3A%2F%2Fexodus.desync.com%3A6969","seeders":0,"leechers":1,"uploader":"SJonam","files":1,"time":1376726355,"description":" &lt;a href=&quot;http://desibbrg.org/images/69062927640383989443.jpg&quot; rel=&quot;nofollow&quot; target=&quot;_NEW&quot;&gt;http://desibbrg.org/images/69062927640383989443.jpg&lt;/a&gt; &lt;a href=&quot;\nhttp://desibbrg.org/images/16212093050151424730.png&quot; rel=&quot;nofollow&quot; target=&quot;_NEW&quot;&gt;\nhttp://desibbrg.org/images/16212093050151424730.png&lt;/a&gt; &lt;a href=&quot;\nhttp://desibbrg.org/images/03750551221254800687.png&quot; rel=&quot;nofollow&quot; target=&quot;_NEW&quot;&gt;\nhttp://desibbrg.org/images/03750551221254800687.png&lt;/a&gt; &lt;a href=&quot;\nhttp://desibbrg.org/images/16548199102426773731.png&quot; rel=&quot;nofollow&quot; target=&quot;_NEW&quot;&gt;\nhttp://desibbrg.org/images/16548199102426773731.png&lt;/a&gt; &lt;a href=&quot;\nhttp://desibbrg.org/images/77095204158614192601.png&quot; rel=&quot;nofollow&quot; target=&quot;_NEW&quot;&gt;\nhttp://desibbrg.org/images/77095204158614192601.png&lt;/a&gt; &lt;a href=&quot;\nhttp://desibbrg.org/images/09736672996074474762.png&quot; rel=&quot;nofollow&quot; target=&quot;_NEW&quot;&gt;\nhttp://desibbrg.org/images/09736672996074474762.png&lt;/a&gt;\n\nMedia Info - \nVideo\nFormat : MPEG-4 Visual\nFormat profile : Advanced Simple@L5\nFormat settings, BVOP : 2\nFormat settings, QPel : Yes\nFormat settings, GMC : No warppoints\nFormat settings, Matrix : Default (MPEG)\nCodec ID : XVID\nCodec ID/Hint : XviD\nDuration : 2h 14mn\nBit rate : 1 305 Kbps\nWidth : 688 pixels\nHeight : 288 pixels\nDisplay aspect ratio : 2.40:1\nFrame rate : 23.976 fps\nColor space : YUV\nChroma subsampling : 4:2:0\nBit depth : 8 bits\nScan type : Progressive\nCompression mode : Lossy\nBits/(Pixel*Frame) : 0.275\nStream size : 1.23 GiB (85%)\nWriting library : XviD 1.2.1 (UTC 2008-12-04)\n\nAudio\nFormat : AC-3\nFormat/Info : Audio Coding 3\nMode extension : CM (complete main)\nCodec ID : 2000\nDuration : 2h 14mn\nBit rate mode : Constant\nBit rate : 224 Kbps\nChannel(s) : 6 channels\nChannel positions : Front: L C R, Side: L R, LFE\nSampling rate : 48.0 KHz\nBit depth : 16 bits\nCompression mode : Lossy\nDelay relative to video : 16ms\nStream size : 216 MiB (15%)\nAlignment : Split accross interleaves\nInterleave, duration : 9358 ms (224.37 video frames)\n\nRipper : IndinaHacker\n\nSeeding 24x7... Extreme Seeding...\n\n\nEnjoy!\n","torrent":{"xt":"urn:btih:00813ec30812cbd79d9c54e74f795cedbc60b8c4","amp;dn":"%5BMARATHI%5D+Ekulti+Ek+2013+1%2F3+DVDRip+XviD+AC3+Esubs+%28DDR%29","amp;tr":["udp%3A%2F%2Ftracker.openbittorrent.com%3A80","udp%3A%2F%2Fopen.demonii.com%3A1337","udp%3A%2F%2Ftracker.coppersurfer.tk%3A6969","udp%3A%2F%2Fexodus.desync.com%3A6969"],"infoHash":"00813ec30812cbd79d9c54e74f795cedbc60b8c4","infoHashBuffer":{"type":"Buffer","data":[0,129,62,195,8,18,203,215,157,156,84,231,79,121,92,237,188,96,184,196]},"announce":[],"urlList":[]}}